<svg xmlns="http://www.w3.org/2000/svg" height="800" width="1200" viewBox="-90 -82.12 780 492.72"><g fill="#fff"><path d="M411.15 211.21c-18.573 48.704-65.924 83.635-121.15 83.635-55.353 0-102.58-34.757-121.07-83.631l14.137-.004c17.774 41.448 58.914 70.486 106.87 70.486 47.844 0 88.961-29.187 106.8-70.486h14.406z"/><path d="M411.15 211.21l-1.228-.47c-18.385 48.211-65.261 82.795-119.92 82.79-54.792.002-101.54-34.408-119.84-82.783l-1.229.467v1.313l14.137-.004v-1.313l-1.206.517c17.972 41.918 59.58 71.282 108.08 71.285 48.391-.003 89.968-29.516 108-71.283l-1.207-.519v1.313h14.412v-1.32l-1.228-.47 1.24.47v-1.314h-15.275l-.344.794c-17.638 40.836-58.293 69.694-105.59 69.692-47.416 0-88.087-28.711-105.66-69.69l-.34-.796-16.908.004.674 1.779c18.67 49.37 66.382 84.479 122.3 84.481 55.793-.005 103.62-35.281 122.38-84.481l.68-1.783h-1.908v1.32zm-13.3-92.68c-3.453-8.093-7.936-15.716-13.03-22.736-2.123.773-4.632 1.279-7.022 1.279-11.025 0-19.963-8.94-19.963-19.964 0-2.481.451-4.863 1.285-7.053-19.158-13.94-42.768-22.181-68.275-22.181-48.011 0-89.193 29.068-106.88 70.618h-14.027c18.529-48.706 65.763-83.729 120.97-83.729 28.607 0 55.097 9.409 76.507 25.133 3.08-1.915 6.638-2.988 10.534-2.988 11.104 0 20.106 9.004 20.106 20.105 0 3.8-1.02 7.299-2.844 10.326 6.939 9.402 12.703 20.074 16.854 31.153l-14.21.04z"/><path d="M397.85 118.53l1.209-.515c-3.496-8.198-8.029-15.904-13.175-22.993l-.582-.8-.929.336c-1.988.725-4.369 1.203-6.576 1.201-5.154 0-9.81-2.085-13.188-5.463a18.576 18.576 0 01-5.461-13.187c0-2.322.421-4.544 1.2-6.585l.357-.94-.813-.59c-19.374-14.098-43.257-22.433-69.05-22.433-48.552 0-90.203 29.398-108.09 71.416l1.21.517v-1.315h-14.027v1.315l1.228.468c18.343-48.214 65.102-82.887 119.74-82.883 28.314 0 54.532 9.309 75.73 24.879l.716.525.755-.469c2.883-1.791 6.186-2.789 9.841-2.791 5.192 0 9.883 2.102 13.286 5.506a18.72 18.72 0 015.506 13.286c-.002 3.565-.95 6.818-2.656 9.646l-.453.753.523.705c6.861 9.301 12.572 19.872 16.682 30.836l1.229-.462-.004-1.315-14.214.036v1.31l1.209-.515-1.21.51.004 1.314 16.104-.04-.662-1.771c-4.195-11.193-10.014-21.968-17.028-31.473l-1.058.781 1.125.677c1.945-3.223 3.035-6.968 3.033-11.003-.002-11.828-9.591-21.417-21.421-21.42-4.138 0-7.952 1.146-11.229 3.188l.695 1.115.777-1.058c-21.624-15.886-48.387-25.389-77.285-25.389-55.775.004-103.48 35.375-122.2 84.575l-.675 1.783h16.8l.341-.8c17.491-41.079 58.203-69.821 105.67-69.818 25.225 0 48.557 8.146 67.503 21.929l.772-1.063-1.229-.468a21.099 21.099 0 00-1.371 7.521c0 11.749 9.522 21.278 21.277 21.278 2.577-.002 5.211-.538 7.471-1.357l-.448-1.236-1.063.773c5.044 6.95 9.477 14.49 12.884 22.479l.342.8.871-.002.02-1.31z"/><path d="M366.96 76.844c0-6.063 4.914-10.981 10.977-10.981 6.075 0 10.992 4.918 10.992 10.981 0 6.059-4.917 10.973-10.992 10.973-6.06 0-10.98-4.915-10.98-10.973" fill="#FF690A"/><path d="M366.96 76.844h.217c0-2.971 1.205-5.662 3.152-7.611a10.718 10.718 0 017.607-3.152c2.976 0 5.668 1.204 7.618 3.152a10.723 10.723 0 013.155 7.611c0 2.97-1.204 5.657-3.153 7.604a10.752 10.752 0 01-7.62 3.151 10.72 10.72 0 01-7.607-3.151 10.717 10.717 0 01-3.152-7.604h-.444c0 6.176 5.013 11.189 11.195 11.191 6.193 0 11.207-5.015 11.209-11.191-.002-6.185-5.016-11.199-11.209-11.199-6.183 0-11.195 5.015-11.195 11.199h.225z" fill="#FF690A"/><path d="M50.175 143.76c2.83-2.837 6.001-4.937 9.521-6.308 3.602-1.461 7.251-2.188 10.939-2.188 3.687 0 7.29.727 10.808 2.188 3.609 1.371 6.824 3.471 9.652 6.308l3.992 3.985-7.98 8.113-4.117-3.992c-1.714-1.717-3.647-3.001-5.792-3.858a17.393 17.393 0 00-13.124 0c-2.146.857-4.078 2.142-5.793 3.858-1.717 1.631-3.001 3.518-3.857 5.66-.861 2.145-1.293 4.332-1.293 6.563 0 2.228.432 4.422 1.293 6.563.855 2.147 2.14 4.08 3.857 5.796 3.436 3.425 7.55 5.145 12.355 5.145 2.315 0 4.548-.428 6.691-1.285 2.144-.858 4.032-2.144 5.664-3.859l4.117-3.996 7.98 8.109-3.992 3.998c-2.828 2.827-6.043 4.969-9.652 6.427-3.518 1.372-7.121 2.064-10.808 2.064-3.688 0-7.337-.692-10.939-2.064-3.52-1.458-6.691-3.6-9.521-6.427-2.834-2.834-4.936-6.011-6.31-9.533-1.37-3.519-2.056-7.117-2.056-10.805 0-3.774.686-7.419 2.056-10.943 1.373-3.52 3.475-6.69 6.309-9.52"/><path d="M50.175 143.76l.929.927c2.716-2.718 5.724-4.705 9.07-6.012l.015-.006c3.458-1.4 6.932-2.089 10.446-2.089 3.513 0 6.936.688 10.303 2.087l.011.002.027.012c3.434 1.307 6.481 3.295 9.187 6.006l3.071 3.066-6.148 6.254-3.181-3.084-.915.943.932-.93c-1.831-1.832-3.922-3.228-6.235-4.15a18.806 18.806 0 00-7.051-1.38c-2.399 0-4.761.46-7.053 1.382-2.312.921-4.401 2.316-6.231 4.148l.929.93-.906-.952c-1.846 1.753-3.248 3.808-4.169 6.124-.923 2.287-1.391 4.651-1.389 7.051-.002 2.397.466 4.764 1.389 7.053.92 2.315 2.313 4.403 4.148 6.234 3.64 3.653 8.162 5.544 13.282 5.532 2.479 0 4.885-.459 7.18-1.379a17.2 17.2 0 006.128-4.178l-.953-.903.917.942 3.179-3.086 6.15 6.251-3.071 3.075c-2.709 2.708-5.77 4.744-9.214 6.138l.491 1.218-.477-1.227c-3.375 1.317-6.809 1.977-10.331 1.977-3.522 0-7.006-.659-10.472-1.98l-.467 1.23.501-1.214c-3.355-1.391-6.373-3.427-9.093-6.144-2.716-2.718-4.708-5.731-6.015-9.078-1.313-3.376-1.965-6.805-1.965-10.329 0-3.615.652-7.089 1.967-10.468 1.306-3.341 3.297-6.354 6.013-9.065l-.929-.92-.929-.929c-2.951 2.941-5.165 6.277-6.604 9.969a31.17 31.17 0 00-2.146 11.422c-.002 3.852.718 7.619 2.145 11.281 1.441 3.698 3.655 7.037 6.606 9.984 2.941 2.941 6.263 5.19 9.946 6.712l.018.006.017.009c3.745 1.424 7.556 2.151 11.409 2.151 3.852 0 7.624-.728 11.286-2.155l.015-.005c3.772-1.523 7.144-3.772 10.088-6.716l4.913-4.921-9.808-9.968-5.076 4.926-.016.015a14.576 14.576 0 01-5.201 3.547 16.54 16.54 0 01-6.201 1.188c-4.49-.013-8.198-1.559-11.426-4.76-1.599-1.599-2.775-3.372-3.564-5.35-.804-2-1.2-4.021-1.2-6.078 0-2.059.396-4.074 1.198-6.071.788-1.972 1.958-3.69 3.543-5.198l.008-.009.016-.015c1.6-1.599 3.374-2.777 5.351-3.568a16.093 16.093 0 0112.145 0c1.981.791 3.758 1.97 5.356 3.568l.006.008 5.063 4.904 9.808-9.971-4.915-4.906c-2.949-2.959-6.331-5.17-10.114-6.607l-.467 1.229.503-1.213c-3.668-1.525-7.453-2.291-11.311-2.289-3.859 0-7.686.764-11.434 2.285l.495 1.217-.479-1.224c-3.694 1.439-7.025 3.649-9.974 6.603l.93.92zm68.335 7.98c-3.431 3.434-5.148 7.551-5.148 12.35 0 2.667.599 5.195 1.803 7.597 1.03-1.031 2.571-2.571 4.627-4.634 2.148-2.142 4.377-4.373 6.693-6.69 2.402-2.401 4.674-4.676 6.818-6.818a361.936 361.936 0 005.153-5.019c-3.264-1.634-6.737-2.189-10.426-1.672-3.6.51-6.77 2.14-9.51 4.88m28.7 20.72l8.104 8.106-3.988 3.994c-2.745 2.747-5.877 4.847-9.398 6.305-3.516 1.459-7.205 2.187-11.068 2.187-3.856 0-7.55-.728-11.066-2.187-3.518-1.458-6.649-3.558-9.396-6.305-2.826-2.834-4.928-6.009-6.299-9.525-1.372-3.603-2.064-7.253-2.064-10.945 0-3.679.692-7.286 2.064-10.811 1.372-3.514 3.474-6.687 6.299-9.519 2.836-2.829 6.009-4.93 9.527-6.308 3.604-1.454 7.25-2.186 10.935-2.186 3.696 0 7.297.731 10.812 2.186 3.605 1.378 6.825 3.479 9.654 6.308l3.988 3.986-32.044 32.051c3.264 1.625 6.693 2.183 10.297 1.672 3.69-.602 6.903-2.275 9.652-5.021l4.01-4z"/><path d="M118.51 151.74l-.931-.929c-3.656 3.642-5.544 8.164-5.532 13.278-.002 2.863.65 5.61 1.942 8.184l.816 1.631 1.289-1.289c1.03-1.029 2.57-2.574 4.627-4.633 2.148-2.143 4.377-4.373 6.693-6.691 2.402-2.402 4.674-4.676 6.818-6.818l-.929-.929.91.949a366.877 366.877 0 005.17-5.038l1.294-1.289-1.632-.814a18.506 18.506 0 00-8.386-2.001c-.927 0-1.866.067-2.813.201-3.886.55-7.352 2.337-10.268 5.26l.93.93.927.932c2.579-2.569 5.457-4.036 8.777-4.519a17.96 17.96 0 012.446-.171c2.522 0 4.904.564 7.208 1.719l.588-1.176-.929-.93a376.418 376.418 0 01-5.133 5l-.012.009-.006.011c-2.146 2.143-4.42 4.415-6.82 6.818-2.316 2.316-4.544 4.546-6.693 6.688l-4.629 4.636.931.93 1.175-.589a15.377 15.377 0 01-1.664-7.008c.013-4.482 1.558-8.194 4.763-11.42l-.95-.93zm28.7 20.72l-.929.931 7.176 7.176-3.062 3.065c-2.626 2.63-5.609 4.627-8.97 6.018-3.36 1.394-6.867 2.088-10.564 2.088-3.692 0-7.203-.694-10.562-2.088-3.362-1.391-6.338-3.388-8.969-6.02-2.709-2.718-4.7-5.731-6.007-9.074l.004.011c-1.319-3.465-1.975-6.947-1.975-10.477 0-3.514.656-6.953 1.971-10.332 1.307-3.34 3.298-6.354 6.007-9.07 2.718-2.709 5.732-4.7 9.077-6.011l.012-.004c3.459-1.397 6.93-2.09 10.442-2.09 3.522 0 6.943.692 10.311 2.083l.017.009.015.004c3.431 1.315 6.486 3.307 9.194 6.011l3.056 3.058-32.403 32.41 1.634.814c2.65 1.323 5.443 1.997 8.326 1.997.906 0 1.821-.068 2.742-.198l.015-.002.012-.005c3.955-.639 7.451-2.464 10.368-5.387l3.992-3.986-.94-.94-.929.931.93-.93-.929-.929-3.991 3.986c-2.58 2.568-5.51 4.092-8.934 4.654l.21 1.298-.184-1.302a17.05 17.05 0 01-2.373.17c-2.477 0-4.84-.566-7.154-1.718l-.586 1.178.929.928 32.974-32.979-4.917-4.917c-2.951-2.951-6.334-5.161-10.113-6.607l-.47 1.23.504-1.215c-3.666-1.518-7.446-2.285-11.316-2.285-3.86 0-7.681.768-11.426 2.281l.491 1.219-.479-1.226c-3.691 1.446-7.025 3.657-9.976 6.603-2.946 2.95-5.156 6.282-6.598 9.973-1.426 3.666-2.152 7.443-2.152 11.287 0 3.855.723 7.672 2.147 11.412l.016.033-.011-.022c1.441 3.689 3.651 7.026 6.596 9.976 2.862 2.865 6.145 5.068 9.822 6.592a29.982 29.982 0 0011.569 2.286c4.028 0 7.897-.763 11.572-2.286 3.676-1.523 6.961-3.727 9.823-6.592l4.916-4.924-9.961-9.963-.929.93.93.92zm15.05-8.37c0-4.031.726-7.76 2.184-11.191 1.547-3.519 3.603-6.563 6.181-9.138 2.656-2.661 5.748-4.718 9.258-6.184 3.522-1.536 7.256-2.31 11.204-2.31 4.033 0 7.764.773 11.199 2.31 3.512 1.466 6.602 3.522 9.263 6.184 2.656 2.575 4.72 5.619 6.178 9.138 1.539 3.432 2.314 7.16 2.314 11.191v28.962h-11.456V164.09c0-2.397-.468-4.625-1.414-6.688-.856-2.143-2.102-3.992-3.734-5.535-1.539-1.631-3.386-2.875-5.535-3.733-2.143-.94-4.415-1.409-6.816-1.409-2.404 0-4.674.469-6.824 1.409-2.056.858-3.901 2.103-5.533 3.733-1.539 1.543-2.788 3.393-3.732 5.535-.855 2.063-1.283 4.29-1.283 6.688v28.962h-11.455v-28.959z"/><path d="M162.26 164.09h1.313c0-3.872.694-7.418 2.082-10.678l-1.211-.514 1.202.529c1.488-3.381 3.451-6.281 5.908-8.738 2.538-2.54 5.474-4.498 8.835-5.898l.017-.007.004-.002c3.356-1.462 6.901-2.199 10.676-2.199 3.865 0 7.402.737 10.662 2.195l.017.009.014.004c3.363 1.4 6.299 3.358 8.841 5.898l.006.007.009.009c2.527 2.451 4.482 5.338 5.878 8.696l.004.011.011.023c1.46 3.258 2.199 6.793 2.199 10.654v27.647H209.9l.002-27.647c0-2.566-.509-4.998-1.537-7.236l-1.194.549 1.22-.486c-.921-2.31-2.28-4.329-4.051-6.004l-.902.955.955-.902c-1.67-1.769-3.688-3.128-6.001-4.053l-.489 1.222.529-1.205c-2.31-1.015-4.773-1.521-7.345-1.52a18.098 18.098 0 00-7.351 1.52l.527 1.205-.506-1.214c-2.216.926-4.209 2.276-5.956 4.018-1.662 1.664-3.001 3.656-4.005 5.936l-.006.015-.004.011c-.927 2.227-1.387 4.639-1.385 7.191v27.647h-8.826v-27.647h-2.606v30.278h14.084v-30.278c0-2.24.396-4.289 1.184-6.182l-1.215-.506 1.203.531c.887-2.01 2.041-3.713 3.458-5.138 1.52-1.515 3.215-2.658 5.112-3.45l.02-.008c1.984-.868 4.064-1.299 6.296-1.299 2.229 0 4.312.431 6.289 1.299l.028.01.012.004c1.981.797 3.658 1.93 5.065 3.42l.027.026.026.026c1.495 1.411 2.624 3.088 3.416 5.064l.013.039.013.024c.866 1.882 1.295 3.912 1.295 6.138v30.278h14.085v-30.278c.002-4.199-.812-8.123-2.428-11.729l-1.201.537 1.213-.504c-1.524-3.675-3.692-6.88-6.477-9.578l-.915.944.929-.931c-2.781-2.783-6.023-4.941-9.688-6.465l-.504 1.212.535-1.198c-3.606-1.616-7.534-2.428-11.734-2.426-4.119-.002-8.043.813-11.729 2.42l.525 1.204-.505-1.212a29.647 29.647 0 00-9.684 6.465c-2.694 2.693-4.845 5.883-6.451 9.539l-.006.014c-1.535 3.605-2.292 7.52-2.291 11.707h1.329zm73.09-20.33c2.834-2.837 6.005-4.937 9.525-6.308 3.603-1.461 7.245-2.188 10.939-2.188 3.689 0 7.292.727 10.81 2.188 3.603 1.371 6.82 3.471 9.65 6.308l3.992 3.985-7.979 8.113-4.118-3.992c-1.719-1.717-3.644-3.001-5.791-3.858a17.452 17.452 0 00-6.564-1.284c-2.231 0-4.419.42-6.566 1.284-2.147.857-4.072 2.142-5.791 3.858a15.955 15.955 0 00-3.863 5.66c-.851 2.145-1.285 4.332-1.285 6.563 0 2.228.434 4.422 1.285 6.563.862 2.147 2.148 4.08 3.863 5.796 3.431 3.425 7.548 5.145 12.357 5.145 2.315 0 4.542-.428 6.689-1.285a15.906 15.906 0 005.666-3.859l4.118-3.996 7.979 8.109-3.992 3.998c-2.83 2.827-6.047 4.969-9.65 6.427-3.518 1.372-7.12 2.064-10.81 2.064-3.694 0-7.336-.692-10.939-2.064-3.52-1.458-6.691-3.6-9.525-6.427-2.832-2.834-4.937-6.011-6.304-9.533-1.375-3.519-2.064-7.117-2.064-10.805 0-3.774.688-7.419 2.064-10.943 1.36-3.52 3.46-6.69 6.29-9.52"/><path d="M235.35 143.76l.929.927c2.718-2.716 5.728-4.705 9.072-6.012l.017-.006c3.459-1.4 6.923-2.089 10.446-2.089 3.516 0 6.938.688 10.304 2.087l.017.006.019.008c3.431 1.307 6.481 3.295 9.191 6.006l3.069 3.066-6.15 6.254-3.179-3.084-.915.943.929-.93c-1.833-1.832-3.918-3.226-6.233-4.15a18.833 18.833 0 00-7.051-1.38c-2.398 0-4.763.46-7.057 1.38-2.311.925-4.396 2.318-6.229 4.15l.929.93-.909-.952a17.3 17.3 0 00-4.174 6.124c-.91 2.292-1.38 4.651-1.38 7.051 0 2.4.47 4.764 1.378 7.047.928 2.321 2.324 4.409 4.154 6.238 3.64 3.655 8.164 5.546 13.288 5.534 2.476 0 4.879-.459 7.176-1.379a17.198 17.198 0 006.132-4.178l-.953-.903.915.94 3.179-3.084 6.15 6.251-3.069 3.075c-2.712 2.708-5.774 4.744-9.214 6.138l.493 1.218-.479-1.227c-3.374 1.317-6.809 1.977-10.331 1.977-3.531 0-7.006-.659-10.474-1.98l-.465 1.23.501-1.214c-3.355-1.391-6.375-3.427-9.097-6.144-2.716-2.718-4.708-5.731-6.009-9.076-1.319-3.378-1.971-6.809-1.971-10.331 0-3.613.654-7.089 1.971-10.466 1.301-3.343 3.293-6.356 6.009-9.067l-.95-.94-.929-.929c-2.949 2.941-5.165 6.277-6.6 9.971a31.164 31.164 0 00-2.153 11.42c0 3.852.722 7.621 2.153 11.284 1.436 3.695 3.649 7.034 6.6 9.981 2.944 2.941 6.267 5.19 9.95 6.712l.011.006.025.009c3.74 1.424 7.551 2.151 11.407 2.151 3.852 0 7.626-.728 11.286-2.155l.014-.007c3.769-1.521 7.142-3.771 10.088-6.714l4.913-4.921-9.811-9.968-5.067 4.92-.021.021a14.626 14.626 0 01-5.203 3.547 16.553 16.553 0 01-6.2 1.188c-4.496-.013-8.204-1.559-11.43-4.758-1.596-1.601-2.775-3.376-3.569-5.354-.794-1.998-1.192-4.02-1.192-6.076 0-2.059.398-4.076 1.194-6.078.788-1.963 1.959-3.684 3.543-5.191l.01-.009.014-.013c1.606-1.604 3.375-2.779 5.351-3.57a16.12 16.12 0 016.079-1.189c2.062 0 4.072.387 6.073 1.189 1.979.791 3.749 1.967 5.353 3.57l5.067 4.91 9.808-9.971-4.913-4.906c-2.951-2.959-6.335-5.17-10.111-6.607l-.468 1.229.504-1.213c-3.671-1.525-7.453-2.291-11.314-2.289-3.868 0-7.686.764-11.432 2.285l.493 1.217-.479-1.224c-3.694 1.439-7.027 3.647-9.976 6.603l.95.94zm63.19 20.33c0 2.412.427 4.685 1.287 6.828.947 2.141 2.186 4.031 3.731 5.662 1.631 1.541 3.518 2.784 5.662 3.729 2.139.864 4.42 1.288 6.824 1.288 2.398 0 4.674-.424 6.815-1.288 2.148-.944 3.99-2.188 5.538-3.729a16.8 16.8 0 003.732-5.662c.943-2.144 1.414-4.416 1.414-6.828 0-2.397-.471-4.625-1.414-6.688-.861-2.143-2.104-3.992-3.732-5.528-1.548-1.638-3.39-2.878-5.538-3.736-2.142-.944-4.417-1.413-6.815-1.413-2.404 0-4.686.469-6.824 1.413a16.61 16.61 0 00-5.662 3.736c-1.546 1.536-2.784 3.386-3.731 5.528-.87 2.07-1.29 4.29-1.29 6.69m-11.33 0c0-4.025.728-7.76 2.186-11.191 1.545-3.519 3.605-6.563 6.176-9.138 2.661-2.661 5.752-4.718 9.266-6.177 3.518-1.543 7.249-2.316 11.201-2.316 4.027 0 7.764.773 11.194 2.316a28.343 28.343 0 019.268 6.177c2.654 2.575 4.718 5.619 6.175 9.138 1.545 3.432 2.316 7.166 2.316 11.191 0 3.953-.771 7.684-2.316 11.201a28.435 28.435 0 01-6.175 9.27c-2.663 2.658-5.751 4.754-9.268 6.305-3.431 1.457-7.167 2.187-11.194 2.187-3.952 0-7.684-.729-11.201-2.187-3.514-1.551-6.604-3.646-9.266-6.305-2.571-2.662-4.631-5.755-6.176-9.27-1.45-3.52-2.18-7.25-2.18-11.2"/><path d="M298.54 164.09h-1.314c-.002 2.568.455 5.016 1.384 7.318l.004.014.01.027c1.003 2.266 2.326 4.291 3.981 6.033l.027.029.021.021a21.053 21.053 0 006.037 3.979l.023.01.013.007c2.305.93 4.759 1.385 7.317 1.385 2.552 0 5.004-.455 7.309-1.385l.008-.005.027-.01c2.285-1.005 4.27-2.342 5.938-4.006a18.062 18.062 0 004.023-6.1l-1.22-.49 1.205.527a18.085 18.085 0 001.523-7.355c.002-2.57-.51-4.998-1.533-7.233l-1.195.546 1.22-.49c-.925-2.306-2.282-4.325-4.05-5.993l-.902.955.953-.902a16.62 16.62 0 00-6.004-4.054l-.487 1.22.531-1.202c-2.31-1.021-4.774-1.528-7.347-1.526-2.576-.002-5.047.505-7.355 1.526l.531 1.202-.488-1.22a17.995 17.995 0 00-6.105 4.027l.004-.004c-1.67 1.66-3.001 3.656-4.007 5.932l-.006.013-.004.011c-.934 2.229-1.39 4.643-1.388 7.193h2.62c0-2.242.396-4.289 1.185-6.18l-1.212-.508 1.202.531c.889-2.012 2.035-3.713 3.455-5.127l.006-.004a15.262 15.262 0 015.219-3.444l.023-.011.02-.008c1.973-.87 4.058-1.301 6.293-1.301 2.227 0 4.311.431 6.284 1.301l.023.01.021.009c1.984.794 3.652 1.921 5.07 3.419l.021.023.031.029c1.488 1.405 2.618 3.082 3.416 5.063l.011.026.013.029c.861 1.886 1.295 3.916 1.295 6.142 0 2.24-.434 4.32-1.304 6.299l-.006.019-.009.019a15.413 15.413 0 01-3.443 5.222c-1.428 1.427-3.123 2.575-5.136 3.458l.527 1.203-.491-1.22c-1.98.798-4.079 1.194-6.324 1.194-2.253 0-4.354-.396-6.334-1.194l-.49 1.22.529-1.201c-2.016-.891-3.769-2.047-5.287-3.482l-.904.955.952-.906c-1.438-1.515-2.589-3.271-3.481-5.287l-1.202.531 1.218-.492c-.793-1.982-1.191-4.078-1.191-6.336h-1.324zm-11.33 0h1.314c0-3.866.696-7.418 2.083-10.678l-1.211-.514 1.205.529c1.483-3.381 3.45-6.281 5.9-8.738 2.542-2.54 5.479-4.496 8.84-5.891l.014-.006.012-.004c3.351-1.469 6.892-2.206 10.672-2.206 3.858 0 7.399.737 10.654 2.199l.021.011.016.006a26.989 26.989 0 018.84 5.891l.03.029-.017-.017c2.527 2.454 4.482 5.341 5.878 8.699l.007.021.008.016c1.463 3.256 2.199 6.797 2.201 10.652-.002 3.781-.734 7.32-2.205 10.675l-.013.028.002-.002a27.095 27.095 0 01-5.894 8.841c-2.545 2.541-5.49 4.542-8.864 6.03l.529 1.203-.514-1.21c-3.26 1.386-6.812 2.082-10.681 2.082-3.791 0-7.344-.694-10.697-2.086l-.504 1.214.529-1.203c-3.373-1.488-6.321-3.489-8.866-6.032l-.929.931.947-.914c-2.462-2.549-4.435-5.502-5.92-8.884l-1.203.528 1.213-.5c-1.391-3.358-2.085-6.912-2.085-10.701H285.9c0 4.111.759 8.027 2.286 11.706l.01.024c1.602 3.651 3.755 6.878 6.437 9.653l.013.013.002.004c2.777 2.772 6.009 4.968 9.663 6.578l.016.008.013.004c3.679 1.523 7.592 2.288 11.705 2.288 4.184 0 8.105-.761 11.709-2.292l.015-.008c3.657-1.61 6.888-3.808 9.665-6.576a29.768 29.768 0 006.462-9.696l-1.214-.505 1.203.529c1.618-3.684 2.43-7.608 2.428-11.73.002-4.191-.808-8.123-2.432-11.73l-1.199.539 1.214-.504c-1.523-3.675-3.692-6.88-6.476-9.578l-.913.944.927-.931a29.552 29.552 0 00-9.689-6.459l-.505 1.213.538-1.198c-3.606-1.623-7.537-2.435-11.732-2.433-4.123-.002-8.048.813-11.729 2.428l.527 1.203-.504-1.213a29.56 29.56 0 00-9.691 6.459c-2.69 2.693-4.845 5.883-6.451 9.541l-.01.023.004-.012c-1.533 3.605-2.29 7.525-2.29 11.707h1.322zm116.85-28.82v11.459h-34.871c-1.631 0-3.001.549-4.118 1.672-1.118 1.111-1.675 2.484-1.675 4.114 0 1.632.557 3.044 1.675 4.247 1.117 1.119 2.487 1.671 4.118 1.671h23.165c2.403 0 4.637.472 6.688 1.418 2.147.854 3.993 2.056 5.536 3.603 1.63 1.545 2.872 3.387 3.735 5.529.938 2.059 1.414 4.293 1.414 6.697 0 2.402-.476 4.681-1.414 6.824a16.983 16.983 0 01-3.735 5.524c-1.543 1.545-3.389 2.795-5.536 3.737-2.052.86-4.285 1.29-6.688 1.29h-34.747v-11.458h34.747c1.717 0 3.128-.556 4.245-1.674 1.115-1.118 1.676-2.528 1.676-4.244 0-1.629-.561-3.003-1.676-4.119-1.117-1.114-2.528-1.676-4.245-1.676h-23.165c-2.401 0-4.678-.427-6.824-1.284-2.055-.942-3.859-2.188-5.4-3.733a20.388 20.388 0 01-3.734-5.53c-.859-2.146-1.283-4.421-1.283-6.822 0-2.405.424-4.63 1.283-6.691.947-2.146 2.189-3.991 3.734-5.538a16.66 16.66 0 015.4-3.602c2.146-.943 4.423-1.414 6.824-1.414h34.855z"/><path d="M404.06 135.27h-1.314v10.144h-33.557c-1.926-.015-3.712.696-5.051 2.058-1.352 1.329-2.068 3.115-2.057 5.044a7.375 7.375 0 002.026 5.142l.015.019.016.017c1.341 1.355 3.125 2.068 5.051 2.056h23.165c2.231 0 4.263.437 6.14 1.298l.026.013.036.015c1.994.791 3.676 1.893 5.09 3.311l.012.008.017.016c1.493 1.418 2.623 3.088 3.421 5.066l.01.029.014.026c.855 1.884 1.293 3.921 1.295 6.151 0 2.227-.439 4.318-1.304 6.297l-.017.037.008-.019a15.65 15.65 0 01-3.449 5.1c-1.43 1.43-3.129 2.583-5.138 3.466l.528 1.205-.507-1.213c-1.884.789-3.936 1.188-6.182 1.188h-33.431v-8.828h33.431c1.993.012 3.825-.687 5.176-2.065 1.363-1.344 2.072-3.171 2.06-5.168.013-1.93-.709-3.712-2.063-5.049-1.345-1.363-3.173-2.074-5.172-2.062H369.19c-2.247 0-4.35-.395-6.339-1.188l-.485 1.22.549-1.194c-1.92-.883-3.59-2.037-5.021-3.469l-.929.93.953-.903a19.027 19.027 0 01-3.494-5.178l-1.193.551 1.222-.487c-.796-1.986-1.19-4.087-1.19-6.335 0-2.25.395-4.292 1.182-6.185l-1.213-.507 1.201.529c.891-2.013 2.04-3.712 3.462-5.139a15.358 15.358 0 014.979-3.317l.022-.011c1.979-.869 4.064-1.299 6.295-1.301h34.871v-1.343h-1.314 1.295v-1.314h-34.871a18.096 18.096 0 00-7.355 1.525l.531 1.203-.507-1.212a17.95 17.95 0 00-5.823 3.884c-1.666 1.668-3.001 3.656-4.009 5.937l-.007.018-.004.011c-.93 2.229-1.385 4.635-1.383 7.194-.002 2.557.453 5.007 1.376 7.312l.016.035.013.025a21.693 21.693 0 003.973 5.885l.012.015.012.011a19.746 19.746 0 005.783 3.998l.031.015.029.011c2.306.924 4.756 1.379 7.313 1.379h23.165c1.434.014 2.433.428 3.313 1.293.88.896 1.277 1.861 1.293 3.188-.016 1.433-.426 2.43-1.293 3.313-.881.868-1.873 1.275-3.313 1.29h-36.061v14.089h36.061c2.558 0 4.972-.465 7.198-1.393l.016-.009.002-.002c2.287-1 4.273-2.346 5.939-4.012a18.335 18.335 0 004.018-5.945l-1.213-.508 1.203.526a18.178 18.178 0 001.525-7.351c0-2.577-.515-5.008-1.533-7.24l-1.195.543 1.219-.489c-.926-2.31-2.281-4.318-4.051-5.993l-.903.953.931-.929c-1.672-1.677-3.681-2.981-5.981-3.895l-.485 1.221.551-1.192c-2.232-1.029-4.664-1.543-7.239-1.541h-23.165c-1.334-.012-2.292-.405-3.191-1.284l-.927.929.964-.893c-.906-.997-1.313-2.023-1.323-3.354.013-1.331.41-2.292 1.286-3.184.902-.884 1.857-1.276 3.191-1.288h36.186v-14.088h-1.314v1.307zm70.39 0v28.824c0 3.949-.772 7.682-2.319 11.201a28.406 28.406 0 01-6.174 9.27c-2.66 2.658-5.75 4.754-9.268 6.298-3.431 1.46-7.16 2.193-11.194 2.193-3.946 0-7.681-.733-11.195-2.193-3.521-1.544-6.606-3.64-9.265-6.298-2.574-2.667-4.635-5.759-6.179-9.27-1.461-3.52-2.188-7.252-2.188-11.201V135.27h11.451v28.824c0 2.412.432 4.68 1.289 6.828.945 2.137 2.186 4.026 3.732 5.657a20.406 20.406 0 005.536 3.733c2.143.857 4.415 1.285 6.818 1.285 2.399 0 4.673-.428 6.821-1.285 2.143-.949 3.988-2.191 5.537-3.733a16.795 16.795 0 003.725-5.657c.947-2.148 1.418-4.416 1.418-6.828V135.27h11.45z"/><path d="M474.45 135.27h-1.314v28.824c-.003 3.777-.733 7.318-2.208 10.675l-.006.015-.004.01a27.12 27.12 0 01-5.894 8.843c-2.542 2.541-5.485 4.542-8.862 6.023l.527 1.203-.514-1.209c-3.262 1.39-6.807 2.088-10.681 2.088-3.782 0-7.337-.698-10.692-2.092l-.503 1.213.526-1.203c-3.376-1.481-6.318-3.482-8.861-6.025l-.93.931.945-.914c-2.466-2.551-4.437-5.507-5.922-8.884l-1.202.528 1.215-.502c-1.394-3.358-2.089-6.914-2.089-10.699v-27.509h8.822v27.509c-.002 2.568.463 5.014 1.382 7.313l.011.022.009.023c1.001 2.264 2.325 4.287 3.983 6.029l.027.029.021.021a21.676 21.676 0 005.89 3.975l.032.015.027.013c2.301.92 4.75 1.379 7.308 1.379 2.555 0 5.003-.459 7.308-1.379l.018-.007.027-.012c2.277-1.009 4.264-2.345 5.934-4.006a18.08 18.08 0 004.018-6.103l-1.221-.485 1.203.531c1.021-2.313 1.53-4.776 1.53-7.359v-27.509h10.139v-1.313h-1.314 1.28v-1.314h-12.767v30.139c-.002 2.242-.435 4.314-1.307 6.297l-.013.024-.007.017a15.355 15.355 0 01-3.435 5.217c-1.428 1.421-3.129 2.572-5.138 3.463l.531 1.201-.489-1.22c-1.987.792-4.087 1.19-6.332 1.19-2.248 0-4.347-.398-6.331-1.19l-.487 1.22.548-1.192a19.032 19.032 0 01-5.178-3.496l-.906.955.955-.905c-1.439-1.518-2.597-3.274-3.486-5.285l-1.201.533 1.221-.488c-.794-1.992-1.196-4.084-1.196-6.34v-30.139h-14.079v30.139c0 4.109.76 8.023 2.29 11.706l.006.015.005.012c1.603 3.643 3.75 6.871 6.436 9.651l.014.013.002.004c2.772 2.771 6.004 4.966 9.665 6.571l.015.009.01.004c3.678 1.527 7.593 2.294 11.7 2.294 4.192 0 8.108-.767 11.708-2.3l.016-.007c3.659-1.605 6.893-3.799 9.667-6.571a29.712 29.712 0 006.46-9.694l-1.215-.505 1.204.529c1.622-3.688 2.433-7.61 2.431-11.73V133.96h-1.315v1.327zm35.9 46.32c2.399 0 4.637-.426 6.697-1.281 2.143-.949 3.98-2.193 5.529-3.737a16.636 16.636 0 003.73-5.657c.947-2.146 1.418-4.414 1.418-6.828v-17.365h-17.375c-2.404 0-4.674.465-6.818 1.41a16.69 16.69 0 00-5.66 3.734c-1.551 1.543-2.789 3.388-3.734 5.529-.858 2.064-1.289 4.295-1.289 6.691 0 2.414.431 4.682 1.289 6.828.945 2.139 2.184 4.028 3.734 5.657 1.628 1.544 3.514 2.788 5.66 3.737 2.14.86 4.41 1.28 6.81 1.28m28.83-69.48v51.983c0 3.951-.774 7.684-2.32 11.206a28.33 28.33 0 01-6.172 9.267c-2.575 2.656-5.617 4.756-9.139 6.298-3.517 1.462-7.251 2.193-11.197 2.193-3.944 0-7.676-.731-11.193-2.193-3.521-1.542-6.607-3.642-9.268-6.298-2.658-2.665-4.76-5.757-6.305-9.267-1.459-3.522-2.191-7.255-2.191-11.206 0-4.028.732-7.762 2.191-11.188 1.545-3.522 3.646-6.568 6.305-9.138 2.66-2.663 5.747-4.721 9.268-6.184 3.518-1.535 7.249-2.311 11.193-2.311h17.375v-23.163h11.46z"/><path d="M510.35 181.59v1.315c2.557 0 4.974-.455 7.2-1.386l.025-.01c2.282-1.007 4.263-2.345 5.929-4.006a18.037 18.037 0 004.024-6.103l-1.222-.487 1.204.531c1.022-2.313 1.528-4.775 1.528-7.359v-18.68h-18.689c-2.572-.002-5.038.504-7.35 1.521l.531 1.203-.489-1.22a18.018 18.018 0 00-6.101 4.023c-1.672 1.664-3.007 3.655-4.006 5.932l-.011.022c-.931 2.231-1.392 4.645-1.392 7.197 0 2.572.461 5.018 1.385 7.318l.011.026.007.013c.999 2.268 2.324 4.291 3.982 6.035l.021.021.027.026c1.74 1.649 3.758 2.979 6.033 3.983l.018.006.024.013c2.301.92 4.75 1.377 7.308 1.377v-2.611c-2.248 0-4.345-.395-6.332-1.188l-.486 1.222.529-1.203c-2.018-.891-3.768-2.051-5.286-3.489l-.903.955.953-.905c-1.441-1.516-2.598-3.27-3.484-5.281l-1.203.529 1.223-.488c-.799-1.99-1.196-4.081-1.196-6.34 0-2.241.397-4.289 1.188-6.184l-1.214-.508 1.203.531c.885-2.008 2.03-3.707 3.459-5.128a15.31 15.31 0 015.219-3.446l.02-.009.023-.011c1.975-.867 4.055-1.297 6.289-1.297h16.061v16.051c-.002 2.243-.432 4.318-1.306 6.299l-.011.022-.007.021a15.368 15.368 0 01-3.439 5.215c-1.429 1.423-3.124 2.574-5.132 3.463l.531 1.203-.507-1.216c-1.891.788-3.945 1.183-6.19 1.183v1.333zm28.83-69.48h-1.314v51.983c-.002 3.779-.736 7.322-2.207 10.677l-.011.024a27.12 27.12 0 01-5.892 8.843l-.014.017.002-.002c-2.458 2.532-5.348 4.529-8.723 6.009l.527 1.203-.505-1.213c-3.356 1.394-6.908 2.092-10.692 2.092-3.781 0-7.332-.698-10.691-2.092l-.502 1.213.524-1.203c-3.373-1.481-6.315-3.484-8.862-6.025-2.543-2.548-4.549-5.5-6.033-8.865l-1.201.529 1.214-.503c-1.39-3.363-2.089-6.916-2.089-10.703 0-3.869.699-7.42 2.085-10.675l-1.21-.514 1.203.526c1.482-3.376 3.482-6.27 6.015-8.721l.017-.016c2.541-2.541 5.474-4.496 8.84-5.898l.022-.008c3.356-1.465 6.896-2.201 10.669-2.201h18.689v-23.164h10.139v-1.344h-1.314 1.29v-1.315h-12.768v23.163h-16.061c-4.115-.002-8.037.81-11.721 2.421l.527 1.204-.506-1.215a29.646 29.646 0 00-9.69 6.467l.929.932-.914-.947c-2.781 2.691-4.986 5.888-6.593 9.556l-.014.024.007-.01c-1.532 3.599-2.296 7.517-2.296 11.703 0 4.111.766 8.027 2.289 11.708l.007.015.007.012c1.606 3.651 3.804 6.886 6.576 9.666 2.777 2.774 6.007 4.97 9.669 6.575l.014.005.012.004c3.679 1.527 7.59 2.294 11.697 2.294 4.109 0 8.023-.767 11.7-2.294l.023-.009c3.671-1.607 6.862-3.808 9.556-6.59l-.943-.913.93.928a29.712 29.712 0 006.458-9.689l-1.216-.505 1.205.526c1.617-3.686 2.433-7.61 2.431-11.732v-53.298h-1.315v1.326z"/></g></svg>